<?xml version="1.0" standalone="no"?>
 <!DOCTYPE svg PUBLIC "-//W3C//DTD SVG 1.1//EN" 
 "http://www.w3.org/Graphics/SVG/1.1/DTD/svg11.dtd"> 
<svg xmlns="http://www.w3.org/2000/svg" version="1.1" 
    width="3.75412cm" height="2.53492cm" viewBox="0 0 14780 9980 ">
<title>SVG Picture created as sw4.svg date 2020/07/25 00:42:02 </title>
  <desc>Picture generated by Eeschema-SVG </desc>
<g style="fill:#000000; fill-opacity:1;stroke:#000000; stroke-opacity:1;
stroke-linecap:round; stroke-linejoin:round; "
 transform="translate(0 0) scale(1 1)">
</g>
<g style="fill:#000000; fill-opacity:0.0; 
stroke:#000000; stroke-width:-10; stroke-opacity:1; 
stroke-linecap:round; stroke-linejoin:round;">
</g>
<g style="fill:#000000; fill-opacity:0.0; 
stroke:#000000; stroke-width:60; stroke-opacity:1; 
stroke-linecap:round; stroke-linejoin:round;">
<rect x="3390" y="2990" width="8000" height="4000" rx="0" />
<path d="M3390 4990
L1390 4990
" />
<path d="M3910 5220
L3910 4880
" />
<path d="M3910 4720
L3890 4740
L3910 4760
L3930 4740
L3910 4720
L3910 4760
" />
<path d="M4150 4880
L4150 5220
" />
<path d="M4150 4930
L4170 4910
L4220 4880
L4290 4880
L4340 4910
L4360 4950
L4360 5220
" />
<path d="M2530 4870
L2250 4870
" />
<path d="M2390 4870
L2390 4370
L2340 4440
L2290 4490
L2250 4510
" />
<path d="M4890 2990
L4890 990
" />
<path d="M4780 4600
L5120 4480
L4780 4360
" />
<path d="M5120 3960
L4620 3960
" />
<path d="M5090 3960
L5120 4000
L5120 4100
L5090 4150
L5070 4170
L5020 4190
L4880 4190
L4830 4170
L4810 4150
L4780 4100
L4780 4000
L4810 3960
" />
<path d="M5120 3510
L4620 3510
" />
<path d="M5090 3510
L5120 3550
L5120 3650
L5090 3700
L5070 3720
L5020 3740
L4880 3740
L4830 3720
L4810 3700
L4780 3650
L4780 3550
L4810 3510
" />
<path d="M4310 2130
L4290 2110
L4270 2060
L4270 1940
L4290 1900
L4310 1870
L4360 1850
L4410 1850
L4480 1870
L4770 2160
L4770 1850
" />
<path d="M9390 2990
L9390 990
" />
<path d="M9280 4390
L9620 4270
L9280 4150
" />
<path d="M9620 3960
L9280 3960
" />
<path d="M9120 3960
L9140 3980
L9160 3960
L9140 3940
L9120 3960
L9160 3960
" />
<path d="M9620 3720
L9120 3720
" />
<path d="M9620 3510
L9350 3510
L9310 3530
L9280 3580
L9280 3650
L9310 3700
L9330 3720
" />
<path d="M8770 2160
L8770 1850
L8960 2020
L8960 1940
L8980 1900
L9000 1870
L9050 1850
L9170 1850
L9220 1870
L9240 1900
L9270 1940
L9270 2090
L9240 2130
L9220 2160
" />
<path d="M9390 6990
L9390 8990
" />
<path d="M9280 6520
L9620 6400
L9280 6280
" />
<path d="M9620 6090
L9280 6090
" />
<path d="M9120 6090
L9140 6110
L9160 6090
L9140 6070
L9120 6090
L9160 6090
" />
<path d="M9620 5780
L9590 5830
L9540 5850
L9120 5850
" />
<path d="M8930 7900
L9270 7900
" />
<path d="M8740 8020
L9100 8130
L9100 7830
" />
<path d="M11390 4990
L13390 4990
" />
<path d="M9990 5220
L9940 5190
L9920 5170
L9900 5120
L9900 4980
L9920 4930
L9940 4910
L9990 4880
L10060 4880
L10110 4910
L10130 4930
L10160 4980
L10160 5120
L10130 5170
L10110 5190
L10060 5220
L9990 5220
" />
<path d="M10580 4880
L10580 5220
" />
<path d="M10370 4880
L10370 5140
L10390 5190
L10440 5220
L10510 5220
L10560 5190
L10580 5170
" />
<path d="M10750 4880
L10940 4880
" />
<path d="M10820 4720
L10820 5140
L10840 5190
L10890 5220
L10940 5220
" />
<path d="M12510 4370
L12270 4370
L12250 4600
L12270 4580
L12320 4560
L12440 4560
L12480 4580
L12510 4600
L12530 4650
L12530 4770
L12510 4820
L12480 4840
L12440 4870
L12320 4870
L12270 4840
L12250 4820
" />
<path d="M4890 6990
L4890 8990
" />
<path d="M4780 6260
L5190 6260
L5240 6280
L5260 6300
L5280 6350
L5280 6420
L5260 6470
" />
<path d="M5090 6260
L5120 6300
L5120 6400
L5090 6450
L5070 6470
L5020 6490
L4880 6490
L4830 6470
L4810 6450
L4780 6400
L4780 6300
L4810 6260
" />
<path d="M4780 6020
L5120 6020
" />
<path d="M4830 6020
L4810 6000
L4780 5950
L4780 5880
L4810 5830
L4850 5810
L5120 5810
" />
<path d="M5120 5360
L4620 5360
" />
<path d="M5090 5360
L5120 5400
L5120 5500
L5090 5550
L5070 5570
L5020 5590
L4880 5590
L4830 5570
L4810 5550
L4780 5500
L4780 5400
L4810 5360
" />
<path d="M4270 7900
L4270 7990
L4290 8040
L4310 8060
L4390 8110
L4480 8130
L4670 8130
L4720 8110
L4740 8090
L4770 8040
L4770 7940
L4740 7900
L4720 7870
L4670 7850
L4550 7850
L4500 7870
L4480 7900
L4460 7940
L4460 8040
L4480 8090
L4500 8110
L4550 8130
" />
<path d="M6940 7190
L7340 7790
" />
<path d="M7340 7190
L6940 7790
" />
<path d="M7650 7730
L7680 7760
L7650 7790
L7620 7760
L7650 7730
L7650 7790
" />
<path d="M7530 7220
L7590 7190
L7730 7190
L7790 7220
L7820 7280
L7820 7330
L7790 7390
L7760 7420
L7710 7450
L7680 7480
L7650 7530
L7650 7560
" />
<path d="M6660 2760
L6720 2790
L6840 2790
L6890 2760
L6920 2710
L6920 2680
L6890 2620
L6840 2590
L6750 2590
L6690 2560
L6660 2510
L6660 2480
L6690 2420
L6750 2390
L6840 2390
L6890 2420
" />
<path d="M7130 2390
L7240 2790
L7350 2510
L7470 2790
L7580 2390
" />
<path d="M8070 2390
L8070 2790
" />
<path d="M7930 2160
L7780 2590
L8160 2590
" />
</g> 
</svg>
